<svg class="diagram-root" style="background: #f5f6f6" xmlns="http://www.w3.org/2000/svg" xmlns:xlink="http://www.w3.org/1999/xlink"><style>.diagram-root { font-family: "Helvetica Neue", sans-serif; font-size: 12px; } .t { overflow: visible; } .t-bg { y: 40; fill: #fff;   } .th { fill: #005aa0;   } .tht { fill: #fff; font-size: 14px;  } .tf { fill: #323c46; overflow: visible; } .tf.pk { fill: #005aa0; font-weight: bold; } .tf.fk { font-weight: bold; } .ty { fill: #adb1b5; font-weight: normal; text-anchor: end; } .r { fill: transparent; stroke: #c3c3c3; stroke-width: 1; } .l { stroke: 1; } .i { fill: #c2c7ce; stroke: #c2c7ce; } .i.ix { fill: #afb3b6; stroke: #000; } .fa { fill: transparent; overflow: visible; } .fa .bg.hover { fill: #f7f7f7; } .c { cy: 12; r: 4; stroke: #d2d2dc; fill: #d2d2dc; } .hr { fill: transparent; stroke: #323c46; stroke-opacity: 0.035; stroke-width: 13; } .dc { stroke: #fa5a3c; fill: #fa5a3c; } .x { stroke: white; stroke-width: 1; } .hl .th { fill: #1b9bff; } .hl .tht {  } .fhl .bg { fill: #e7f4ff; } .fhls .bg {  } .r.hl { stroke: #1b9bff; } .dim { opacity: 0.25; }</style><g class="drawing-wrapper" transform="translate(67, 73.33333333333333) scale(1,1)"><g class="rs"><path d="M -30 215.33 m -1, 0 a 1,1 0 1,0 2,0 a 1,1 0 1,0 -2,0 M -30 215.33 m -0.5, 0 a 0.5,0.5 0 1,0 1,0 a 0.5,0.5 0 1,0 -1,0  M-30 215.33 L-30 215.33 -42 215.33 M -30 221.33 m -1, 0 a 1,1 0 1,0 2,0 a 1,1 0 1,0 -2,0 M -30 221.33 m -0.5, 0 a 0.5,0.5 0 1,0 1,0 a 0.5,0.5 0 1,0 -1,0  M-30 221.33 L-30 221.33 -37 215.33 -30 209.33 M -30 209.33 m -1, 0 a 1,1 0 1,0 2,0 a 1,1 0 1,0 -2,0 M -30 209.33 m -0.5, 0 a 0.5,0.5 0 1,0 1,0 a 0.5,0.5 0 1,0 -1,0  M-42 215.33 C -92 215.33, -98 477, -32 477 M -20 477 m -1, 0 a 1,1 0 1,0 2,0 a 1,1 0 1,0 -2,0 M -20 477 m -0.5, 0 a 0.5,0.5 0 1,0 1,0 a 0.5,0.5 0 1,0 -1,0  M-20 477 L-20 477 -32 477 M-26 483 L-26 483 -26 471" id="h1067919046" class="r"></path><path d="M 124.03 240.33 m -1, 0 a 1,1 0 1,0 2,0 a 1,1 0 1,0 -2,0 M 124.03 240.33 m -0.5, 0 a 0.5,0.5 0 1,0 1,0 a 0.5,0.5 0 1,0 -1,0  M124.03 240.33 L124.03 240.33 136.03 240.33 M 124.03 246.33 m -1, 0 a 1,1 0 1,0 2,0 a 1,1 0 1,0 -2,0 M 124.03 246.33 m -0.5, 0 a 0.5,0.5 0 1,0 1,0 a 0.5,0.5 0 1,0 -1,0  M124.03 246.33 L124.03 246.33 131.03 240.33 124.03 234.33 M 124.03 234.33 m -1, 0 a 1,1 0 1,0 2,0 a 1,1 0 1,0 -2,0 M 124.03 234.33 m -0.5, 0 a 0.5,0.5 0 1,0 1,0 a 0.5,0.5 0 1,0 -1,0  M136.03 240.33 C 202.622 240.33, 196.4 13.670000000000002, 146.4 13.670000000000002 M 134.4 13.670000000000002 m -1, 0 a 1,1 0 1,0 2,0 a 1,1 0 1,0 -2,0 M 134.4 13.670000000000002 m -0.5, 0 a 0.5,0.5 0 1,0 1,0 a 0.5,0.5 0 1,0 -1,0  M134.4 13.670000000000002 L134.4 13.670000000000002 146.4 13.670000000000002 M140.4 19.67 L140.4 19.67 140.4 7.670000000000002" id="h896446060" class="r"></path><path d="M -18.33 780.33 m -1, 0 a 1,1 0 1,0 2,0 a 1,1 0 1,0 -2,0 M -18.33 780.33 m -0.5, 0 a 0.5,0.5 0 1,0 1,0 a 0.5,0.5 0 1,0 -1,0  M-18.33 780.33 L-18.33 780.33 -30.33 780.33 M -18.33 786.33 m -1, 0 a 1,1 0 1,0 2,0 a 1,1 0 1,0 -2,0 M -18.33 786.33 m -0.5, 0 a 0.5,0.5 0 1,0 1,0 a 0.5,0.5 0 1,0 -1,0  M-18.33 786.33 L-18.33 786.33 -25.33 780.33 -18.33 774.33 M -18.33 774.33 m -1, 0 a 1,1 0 1,0 2,0 a 1,1 0 1,0 -2,0 M -18.33 774.33 m -0.5, 0 a 0.5,0.5 0 1,0 1,0 a 0.5,0.5 0 1,0 -1,0  M-30.33 780.33 C -83.002 780.33, -82 477, -32 477 M -20 477 m -1, 0 a 1,1 0 1,0 2,0 a 1,1 0 1,0 -2,0 M -20 477 m -0.5, 0 a 0.5,0.5 0 1,0 1,0 a 0.5,0.5 0 1,0 -1,0  M-20 477 L-20 477 -32 477 M-26 483 L-26 483 -26 471" id="h4256431457" class="r"></path><path d="M 322.33 267.33000000000004 m -1, 0 a 1,1 0 1,0 2,0 a 1,1 0 1,0 -2,0 M 322.33 267.33000000000004 m -0.5, 0 a 0.5,0.5 0 1,0 1,0 a 0.5,0.5 0 1,0 -1,0  M322.33 267.33000000000004 L322.33 267.33000000000004 310.33 267.33000000000004 M 322.33 273.33000000000004 m -1, 0 a 1,1 0 1,0 2,0 a 1,1 0 1,0 -2,0 M 322.33 273.33000000000004 m -0.5, 0 a 0.5,0.5 0 1,0 1,0 a 0.5,0.5 0 1,0 -1,0  M322.33 273.33000000000004 L322.33 273.33000000000004 315.33 267.33000000000004 322.33 261.33000000000004 M 322.33 261.33000000000004 m -1, 0 a 1,1 0 1,0 2,0 a 1,1 0 1,0 -2,0 M 322.33 261.33000000000004 m -0.5, 0 a 0.5,0.5 0 1,0 1,0 a 0.5,0.5 0 1,0 -1,0  M310.33 267.33000000000004 Q 271.6 267.33000000000004, 232.86 372.17 T 155.38 477 M 143.38 477 m -1, 0 a 1,1 0 1,0 2,0 a 1,1 0 1,0 -2,0 M 143.38 477 m -0.5, 0 a 0.5,0.5 0 1,0 1,0 a 0.5,0.5 0 1,0 -1,0  M143.38 477 L143.38 477 155.38 477 M149.38 483 L149.38 483 149.38 471" id="h2434703978" class="r"></path><path d="M 490.41 292.33000000000004 m -1, 0 a 1,1 0 1,0 2,0 a 1,1 0 1,0 -2,0 M 490.41 292.33000000000004 m -0.5, 0 a 0.5,0.5 0 1,0 1,0 a 0.5,0.5 0 1,0 -1,0  M490.41 292.33000000000004 L490.41 292.33000000000004 502.41 292.33000000000004 M 490.41 298.33000000000004 m -1, 0 a 1,1 0 1,0 2,0 a 1,1 0 1,0 -2,0 M 490.41 298.33000000000004 m -0.5, 0 a 0.5,0.5 0 1,0 1,0 a 0.5,0.5 0 1,0 -1,0  M490.41 298.33000000000004 L490.41 298.33000000000004 497.41 292.33000000000004 490.41 286.33000000000004 M 490.41 286.33000000000004 m -1, 0 a 1,1 0 1,0 2,0 a 1,1 0 1,0 -2,0 M 490.41 286.33000000000004 m -0.5, 0 a 0.5,0.5 0 1,0 1,0 a 0.5,0.5 0 1,0 -1,0  M502.41 292.33000000000004 Q 521.89 292.33000000000004, 541.37 342.5 T 580.33 392.67 M 592.33 392.67 m -1, 0 a 1,1 0 1,0 2,0 a 1,1 0 1,0 -2,0 M 592.33 392.67 m -0.5, 0 a 0.5,0.5 0 1,0 1,0 a 0.5,0.5 0 1,0 -1,0  M592.33 392.67 L592.33 392.67 580.33 392.67 M586.33 398.67 L586.33 398.67 586.33 386.67" id="h1132354696" class="r"></path><path d="M 364 548 m -1, 0 a 1,1 0 1,0 2,0 a 1,1 0 1,0 -2,0 M 364 548 m -0.5, 0 a 0.5,0.5 0 1,0 1,0 a 0.5,0.5 0 1,0 -1,0  M364 548 L364 548 352 548 M 364 554 m -1, 0 a 1,1 0 1,0 2,0 a 1,1 0 1,0 -2,0 M 364 554 m -0.5, 0 a 0.5,0.5 0 1,0 1,0 a 0.5,0.5 0 1,0 -1,0  M364 554 L364 554 357 548 364 542 M 364 542 m -1, 0 a 1,1 0 1,0 2,0 a 1,1 0 1,0 -2,0 M 364 542 m -0.5, 0 a 0.5,0.5 0 1,0 1,0 a 0.5,0.5 0 1,0 -1,0  M352 548 Q 302.85 548, 253.69 512.5 T 155.38 477 M 143.38 477 m -1, 0 a 1,1 0 1,0 2,0 a 1,1 0 1,0 -2,0 M 143.38 477 m -0.5, 0 a 0.5,0.5 0 1,0 1,0 a 0.5,0.5 0 1,0 -1,0  M143.38 477 L143.38 477 155.38 477 M149.38 483 L149.38 483 149.38 471" id="h919906968" class="r"></path><path d="M 478.03 573 m -1, 0 a 1,1 0 1,0 2,0 a 1,1 0 1,0 -2,0 M 478.03 573 m -0.5, 0 a 0.5,0.5 0 1,0 1,0 a 0.5,0.5 0 1,0 -1,0  M478.03 573 L478.03 573 490.03 573 M 478.03 579 m -1, 0 a 1,1 0 1,0 2,0 a 1,1 0 1,0 -2,0 M 478.03 579 m -0.5, 0 a 0.5,0.5 0 1,0 1,0 a 0.5,0.5 0 1,0 -1,0  M478.03 579 L478.03 579 485.03 573 478.03 567 M 478.03 567 m -1, 0 a 1,1 0 1,0 2,0 a 1,1 0 1,0 -2,0 M 478.03 567 m -0.5, 0 a 0.5,0.5 0 1,0 1,0 a 0.5,0.5 0 1,0 -1,0  M490.03 573 Q 512.61 573, 535.18 482.84 T 580.33 392.67 M 592.33 392.67 m -1, 0 a 1,1 0 1,0 2,0 a 1,1 0 1,0 -2,0 M 592.33 392.67 m -0.5, 0 a 0.5,0.5 0 1,0 1,0 a 0.5,0.5 0 1,0 -1,0  M592.33 392.67 L592.33 392.67 580.33 392.67 M586.33 398.67 L586.33 398.67 586.33 386.67" id="h654005688" class="r"></path></g><g class="hrs"></g><g class="ts"><svg width="163.38" height="225" x="-20" y="420" id="h3889921393" class="t"><rect height="40" width="163.38" class="th"></rect><text x="13" y="25" class="tht">Users</text><rect height="185" width="163.38" class="t-bg"></rect><text x="13" y="61" class="tf pk">id<tspan x="150.38" class="ty">serial</tspan></text><path d="M7,14A2,2 0 0,1 5,12A2,2 0 0,1 7,10A2,2 0 0,1 9,12A2,2 0 0,1 7,14M12.65,10C11.83,7.67 9.61,6 7, 6A6, 6 0 0, 0 1, 12A6, 6 0 0, 0 7, 18C9.61, 18 11.83, 16.33 12.65, 14H17V18H21V14H23V10H12.65Z" class="i pk" transform="translate(101.70421875, 48) scale(0.65)"></path><text x="13" y="86" class="tf">email<tspan x="150.38" class="ty">varchar(64)</tspan></text><text x="13" y="111" class="tf">password<tspan x="150.38" class="ty">varchar(64)</tspan></text><text x="13" y="136" class="tf">first_name<tspan x="150.38" class="ty">varchar(64)</tspan></text><text x="13" y="161" class="tf">last_name<tspan x="150.38" class="ty">varchar(64)</tspan></text><text x="13" y="186" class="tf">locale<tspan x="150.38" class="ty">varchar(32)</tspan></text><text x="13" y="211" class="tf">img<tspan x="150.38" class="ty">varchar(64)</tspan></text></svg><svg width="154.03" height="250" x="-30" y="133.33" id="h4111251196" class="t"><rect height="40" width="154.03" class="th"></rect><text x="13" y="25" class="tht">Subscriptions</text><rect height="210" width="154.03" class="t-bg"></rect><text x="13" y="61" class="tf pk">id<tspan x="141.03" class="ty">serial</tspan></text><path d="M7,14A2,2 0 0,1 5,12A2,2 0 0,1 7,10A2,2 0 0,1 9,12A2,2 0 0,1 7,14M12.65,10C11.83,7.67 9.61,6 7, 6A6, 6 0 0, 0 1, 12A6, 6 0 0, 0 7, 18C9.61, 18 11.83, 16.33 12.65, 14H17V18H21V14H23V10H12.65Z" class="i pk" transform="translate(92.35421875, 48) scale(0.65)"></path><text x="13" y="86" class="tf fk">user_id<tspan x="141.03" class="ty">serial</tspan></text><text x="13" y="111" class="tf fk">transaction_id<tspan x="141.03" class="ty">serial</tspan></text><text x="13" y="136" class="tf">quota<tspan x="141.03" class="ty">int</tspan></text><text x="13" y="161" class="tf">platform<tspan x="141.03" class="ty">smallint</tspan></text><text x="13" y="186" class="tf">start_time<tspan x="141.03" class="ty">timestamp</tspan></text><text x="13" y="211" class="tf">end_time<tspan x="141.03" class="ty">timestamp</tspan></text><text x="13" y="236" class="tf">autorenew<tspan x="141.03" class="ty">boolean</tspan></text></svg><svg width="179.4" height="150" x="-45" y="-43.33" id="h3990581482" class="t"><rect height="40" width="179.4" class="th"></rect><text x="13" y="25" class="tht">Transactions</text><rect height="110" width="179.4" class="t-bg"></rect><text x="13" y="61" class="tf pk">id<tspan x="166.4" class="ty">serial</tspan></text><path d="M7,14A2,2 0 0,1 5,12A2,2 0 0,1 7,10A2,2 0 0,1 9,12A2,2 0 0,1 7,14M12.65,10C11.83,7.67 9.61,6 7, 6A6, 6 0 0, 0 1, 12A6, 6 0 0, 0 7, 18C9.61, 18 11.83, 16.33 12.65, 14H17V18H21V14H23V10H12.65Z" class="i pk" transform="translate(117.72421875, 48) scale(0.65)"></path><text x="13" y="86" class="tf">cost<tspan x="166.4" class="ty">real</tspan></text><text x="13" y="111" class="tf">payment_time<tspan x="166.4" class="ty">timestamp</tspan></text><text x="13" y="136" class="tf">payment_method<tspan x="166.4" class="ty">smallint</tspan></text></svg><svg width="178.06" height="175" x="-18.33" y="698.33" id="h3797722107" class="t"><rect height="40" width="178.06" class="th"></rect><text x="13" y="25" class="tht">Binds</text><rect height="135" width="178.06" class="t-bg"></rect><text x="13" y="61" class="tf pk">id<tspan x="165.06" class="ty">serial</tspan></text><path d="M7,14A2,2 0 0,1 5,12A2,2 0 0,1 7,10A2,2 0 0,1 9,12A2,2 0 0,1 7,14M12.65,10C11.83,7.67 9.61,6 7, 6A6, 6 0 0, 0 1, 12A6, 6 0 0, 0 7, 18C9.61, 18 11.83, 16.33 12.65, 14H17V18H21V14H23V10H12.65Z" class="i pk" transform="translate(116.38421875, 48) scale(0.65)"></path><text x="13" y="86" class="tf fk">user_id<tspan x="165.06" class="ty">serial</tspan></text><text x="13" y="111" class="tf">card_number<tspan x="165.06" class="ty">varchar(32)</tspan></text><text x="13" y="136" class="tf">card_expired<tspan x="165.06" class="ty">timestamp</tspan></text><text x="13" y="161" class="tf">card_user<tspan x="165.06" class="ty">varchar(32)</tspan></text></svg><svg width="168.08" height="200" x="322.33" y="185.33" id="h412491750" class="t"><rect height="40" width="168.08" class="th"></rect><text x="13" y="25" class="tht">Versions</text><rect height="160" width="168.08" class="t-bg"></rect><text x="13" y="61" class="tf pk">id<tspan x="155.08" class="ty">serial</tspan></text><path d="M7,14A2,2 0 0,1 5,12A2,2 0 0,1 7,10A2,2 0 0,1 9,12A2,2 0 0,1 7,14M12.65,10C11.83,7.67 9.61,6 7, 6A6, 6 0 0, 0 1, 12A6, 6 0 0, 0 7, 18C9.61, 18 11.83, 16.33 12.65, 14H17V18H21V14H23V10H12.65Z" class="i pk" transform="translate(106.40421875000001, 48) scale(0.65)"></path><text x="13" y="86" class="tf fk">user_id<tspan x="155.08" class="ty">serial</tspan></text><text x="13" y="111" class="tf fk">doc_id<tspan x="155.08" class="ty">serial</tspan></text><text x="13" y="136" class="tf">version<tspan x="155.08" class="ty">int</tspan></text><text x="13" y="161" class="tf">prev_version<tspan x="155.08" class="ty">int</tspan></text><text x="13" y="186" class="tf">update_date<tspan x="155.08" class="ty">timestamp</tspan></text></svg><svg width="171.4" height="175" x="592.33" y="335.67" id="h2677781667" class="t"><rect height="40" width="171.4" class="th"></rect><text x="13" y="25" class="tht">Documents</text><rect height="135" width="171.4" class="t-bg"></rect><text x="13" y="61" class="tf pk">id<tspan x="158.4" class="ty">int</tspan></text><path d="M7,14A2,2 0 0,1 5,12A2,2 0 0,1 7,10A2,2 0 0,1 9,12A2,2 0 0,1 7,14M12.65,10C11.83,7.67 9.61,6 7, 6A6, 6 0 0, 0 1, 12A6, 6 0 0, 0 7, 18C9.61, 18 11.83, 16.33 12.65, 14H17V18H21V14H23V10H12.65Z" class="i pk" transform="translate(125.726171875, 48) scale(0.65)"></path><text x="13" y="86" class="tf">name<tspan x="158.4" class="ty">varchar(64)</tspan></text><text x="13" y="111" class="tf">path<tspan x="158.4" class="ty">varchar(64)</tspan></text><text x="13" y="136" class="tf">size<tspan x="158.4" class="ty">int</tspan></text><text x="13" y="161" class="tf">created_date<tspan x="158.4" class="ty">timestamp</tspan></text></svg><svg width="114.03" height="150" x="364" y="466" id="h464759227" class="t"><rect height="40" width="114.03" class="th"></rect><text x="13" y="25" class="tht">Weblinks</text><rect height="110" width="114.03" class="t-bg"></rect><text x="13" y="61" class="tf pk">id<tspan x="101.03" class="ty">int</tspan></text><path d="M7,14A2,2 0 0,1 5,12A2,2 0 0,1 7,10A2,2 0 0,1 9,12A2,2 0 0,1 7,14M12.65,10C11.83,7.67 9.61,6 7, 6A6, 6 0 0, 0 1, 12A6, 6 0 0, 0 7, 18C9.61, 18 11.83, 16.33 12.65, 14H17V18H21V14H23V10H12.65Z" class="i pk" transform="translate(68.356171875, 48) scale(0.65)"></path><text x="13" y="86" class="tf fk">user_id<tspan x="101.03" class="ty">serial</tspan></text><text x="13" y="111" class="tf fk">doc_id<tspan x="101.03" class="ty">serial</tspan></text><text x="13" y="136" class="tf">role<tspan x="101.03" class="ty">smallint</tspan></text></svg></g></g><text class="qdbd-link" x="10" y="20">www.quickdatabasediagrams.com</text></svg>